<svg width="340" height="264" viewBox="0 0 340 264" fill="none" xmlns="http://www.w3.org/2000/svg">
<path d="M41.04 252H27.696V246.24H31.2L29.952 241.872H12.048L10.752 246.24H14.256V252H0.96V246.24H4.752L11.904 222.144H8.88V216.384H28.416L37.248 246.24H41.04V252ZM13.776 236.112H28.224L24.096 222.144H17.952L13.776 236.112ZM43.3931 216.384H64.4651C66.8651 216.384 69.1371 216.832 71.2811 217.728C73.4571 218.592 75.3771 219.824 77.0411 221.424C78.7051 222.992 80.0171 224.864 80.9771 227.04C81.9691 229.216 82.4651 231.584 82.4651 234.144C82.4651 236.544 82.0011 238.832 81.0731 241.008C80.1771 243.152 78.9291 245.04 77.3291 246.672C75.7291 248.304 73.8251 249.6 71.6171 250.56C69.4411 251.52 67.0571 252 64.4651 252H43.3931V246.24H47.1371V222.144H43.3931V216.384ZM64.4651 246.24C66.1611 246.24 67.7451 245.936 69.2171 245.328C70.7211 244.688 72.0171 243.824 73.1051 242.736C74.2251 241.648 75.1051 240.368 75.7451 238.896C76.3851 237.424 76.7051 235.84 76.7051 234.144C76.7051 232.48 76.3851 230.912 75.7451 229.44C75.1051 227.968 74.2251 226.704 73.1051 225.648C72.0171 224.56 70.7211 223.712 69.2171 223.104C67.7451 222.464 66.1611 222.144 64.4651 222.144H52.8971V246.24H64.4651ZM101.902 215.952C103.694 215.952 105.294 216.016 106.702 216.144C108.11 216.272 109.438 216.464 110.686 216.72C111.934 216.976 113.15 217.312 114.334 217.728C115.518 218.144 116.782 218.64 118.126 219.216V226.416H112.846L112.606 223.536C111.39 222.992 109.886 222.56 108.094 222.24C106.334 221.888 104.142 221.712 101.518 221.712C99.5661 221.712 97.9341 221.84 96.6221 222.096C95.3101 222.352 94.2541 222.672 93.4541 223.056C92.6861 223.44 92.1261 223.872 91.7741 224.352C91.4541 224.832 91.2941 225.296 91.2941 225.744C91.2941 226.224 91.3901 226.672 91.5821 227.088C91.8061 227.472 92.2701 227.84 92.9741 228.192C93.7101 228.512 94.7501 228.8 96.0941 229.056C97.4701 229.312 99.3101 229.52 101.614 229.68C104.878 229.904 107.63 230.272 109.87 230.784C112.142 231.264 113.982 231.952 115.39 232.848C116.798 233.712 117.822 234.8 118.462 236.112C119.102 237.392 119.422 238.928 119.422 240.72C119.422 242.288 119.006 243.776 118.174 245.184C117.342 246.592 116.142 247.824 114.574 248.88C113.006 249.936 111.086 250.784 108.814 251.424C106.542 252.032 103.95 252.336 101.038 252.336C99.0221 252.336 97.1021 252.128 95.2781 251.712C93.4861 251.296 91.8221 250.768 90.2861 250.128C88.7501 249.488 87.3741 248.784 86.1581 248.016C84.9741 247.216 83.9981 246.432 83.2301 245.664L87.0221 241.44C87.9181 242.144 88.8621 242.816 89.8541 243.456C90.8461 244.064 91.9181 244.608 93.0701 245.088C94.2221 245.536 95.4541 245.904 96.7661 246.192C98.1101 246.448 99.5341 246.576 101.038 246.576C103.278 246.576 105.182 246.4 106.75 246.048C108.35 245.696 109.646 245.248 110.638 244.704C111.63 244.128 112.35 243.488 112.798 242.784C113.278 242.08 113.518 241.392 113.518 240.72C113.518 240.048 113.342 239.44 112.99 238.896C112.638 238.32 112.014 237.824 111.118 237.408C110.222 236.96 109.006 236.592 107.47 236.304C105.934 236.016 103.982 235.776 101.614 235.584C98.3501 235.328 95.6461 234.96 93.5021 234.48C91.3581 234 89.6461 233.36 88.3661 232.56C87.0861 231.76 86.1901 230.816 85.6781 229.728C85.1661 228.608 84.9101 227.296 84.9101 225.792C84.9101 224.32 85.2941 222.976 86.0621 221.76C86.8301 220.544 87.9341 219.504 89.3741 218.64C90.8141 217.776 92.5901 217.12 94.7021 216.672C96.8141 216.192 99.2141 215.952 101.902 215.952ZM140.925 239.184V233.904H156.285V239.184H140.925Z" fill="#CA0013"/>
<path d="M217.29 252H203.946V246.24H207.45L206.202 241.872H188.298L187.002 246.24H190.506V252H177.21V246.24H181.002L188.154 222.144H185.13V216.384H204.666L213.498 246.24H217.29V252ZM190.026 236.112H204.474L200.346 222.144H194.202L190.026 236.112ZM252.169 222.144V234.288C252.169 237.04 251.785 239.536 251.017 241.776C250.249 244.016 249.129 245.936 247.657 247.536C246.217 249.104 244.441 250.32 242.329 251.184C240.217 252.016 237.833 252.432 235.177 252.432C232.617 252.432 230.281 252.016 228.169 251.184C226.089 250.32 224.297 249.104 222.793 247.536C221.321 245.936 220.169 244.016 219.337 241.776C218.537 239.536 218.137 237.024 218.137 234.24V222.144H214.393V216.384H227.689V222.144H223.897V234.24C223.897 236.064 224.105 237.744 224.521 239.28C224.969 240.816 225.657 242.128 226.585 243.216C227.513 244.304 228.681 245.152 230.089 245.76C231.497 246.368 233.193 246.672 235.177 246.672C237.289 246.672 239.049 246.368 240.457 245.76C241.897 245.152 243.049 244.304 243.913 243.216C244.809 242.128 245.449 240.816 245.833 239.28C246.217 237.744 246.409 236.064 246.409 234.24V222.144H242.617V216.384H255.961V222.144H252.169ZM263.595 226.416H258.315V216.384H296.955V226.416H291.675L291.195 222.144H280.491V246.24H284.283V252H270.939V246.24H274.731V222.144H264.075L263.595 226.416ZM298.442 234.24C298.442 231.392 298.986 228.848 300.074 226.608C301.162 224.336 302.618 222.432 304.442 220.896C306.266 219.328 308.362 218.128 310.73 217.296C313.13 216.464 315.61 216.048 318.17 216.048C320.858 216.048 323.386 216.464 325.754 217.296C328.154 218.128 330.25 219.328 332.042 220.896C333.834 222.432 335.258 224.336 336.314 226.608C337.37 228.848 337.898 231.392 337.898 234.24C337.898 236.992 337.37 239.488 336.314 241.728C335.258 243.968 333.834 245.888 332.042 247.488C330.25 249.056 328.154 250.272 325.754 251.136C323.386 252 320.858 252.432 318.17 252.432C315.61 252.432 313.13 252.016 310.73 251.184C308.362 250.32 306.266 249.104 304.442 247.536C302.618 245.936 301.162 244.016 300.074 241.776C298.986 239.536 298.442 237.024 298.442 234.24ZM318.17 221.808C316.186 221.808 314.346 222.112 312.65 222.72C310.986 223.328 309.53 224.176 308.282 225.264C307.066 226.352 306.106 227.664 305.402 229.2C304.698 230.736 304.346 232.416 304.346 234.24C304.346 236.064 304.698 237.744 305.402 239.28C306.106 240.816 307.066 242.128 308.282 243.216C309.53 244.304 310.986 245.152 312.65 245.76C314.346 246.368 316.186 246.672 318.17 246.672C320.282 246.672 322.186 246.368 323.882 245.76C325.578 245.152 327.018 244.304 328.202 243.216C329.418 242.128 330.346 240.816 330.986 239.28C331.658 237.744 331.994 236.064 331.994 234.24C331.994 232.416 331.658 230.736 330.986 229.2C330.346 227.664 329.418 226.352 328.202 225.264C327.018 224.176 325.578 223.328 323.882 222.72C322.186 222.112 320.282 221.808 318.17 221.808Z" fill="#F6F6F6"/>
<path d="M240.372 104.536C237.921 126.368 219.36 164.19 169.278 166.466C153.347 166.466 125.156 159.812 107.645 129.575H81.3802C91.0108 154.91 117.451 188.179 169.278 190.335C208.504 190.981 271.015 159.637 264.533 79.8462H210.08L213.232 104.536H240.372Z" fill="#F6F6F6"/>
<path d="M255.606 54.1064C245.1 32.3386 216.208 8.04106e-05 169.278 0C133.56 -6.11983e-05 70.5239 28.6614 75.2516 104.536H138.084V79.8462H100.291C103.443 61.8691 123.611 24.8092 169.278 24.1088C171.379 24.1088 206.399 22.9384 227.587 54.1064H255.606Z" fill="#F6F6F6"/>
<path d="M127.539 94.2369C127.539 94.2369 127.611 138.922 127.612 152.349C139.343 161.335 152.053 164.135 152.053 164.135V153.616V129.101V94.2369C153.431 77.602 165.352 73.7497 172.531 73.7497C185.839 73.7497 192.326 86.182 192.326 94.2369V129.101V153.616V162.451C192.326 162.451 208.399 157.336 216.84 148.703C216.832 130.101 216.84 94.2369 216.84 94.2369C215.079 59.2162 188.816 48.455 172.531 48.8854C139.788 49.7507 126.655 77.602 127.539 94.2369Z" fill="#DC101C"/>
<path d="M192.326 129.101H152.053V153.616H192.326V129.101Z" fill="#DC101C"/>
</svg>
