<?xml version="1.0" encoding="utf-8"?><svg viewBox="0 0 24 24" xmlns="http://www.w3.org/2000/svg" xmlns:xlink="http://www.w3.org/1999/xlink"><style>:root>svg{display:none}:root>svg:target{display:block}</style><svg fill="none" viewBox="0 0 10 8" id="check" xmlns="http://www.w3.org/2000/svg"><path fill-rule="evenodd" clip-rule="evenodd" d="M9.828.195c.23.26.23.683 0 .943L3.945 7.805a.54.54 0 01-.832 0L.173 4.47a.731.731 0 010-.942.54.54 0 01.831 0L3.53 6.39 8.996.195a.54.54 0 01.832 0z" fill="#fff"/></svg><svg fill="none" viewBox="0 0 20 20" id="plus" xmlns="http://www.w3.org/2000/svg"><path fill="#DC101C" d="M0 8h20v3H0z"/><path fill="#DC101C" d="M11.2 0v20h-3V0z"/></svg><svg fill="none" viewBox="0 0 20 20" id="plus-dark" xmlns="http://www.w3.org/2000/svg"><path fill="#2F2F2F" d="M0 8h20v3H0z"/><path fill="#2F2F2F" d="M11.2 0v20h-3V0z"/></svg><svg fill="none" viewBox="0 0 24 24" id="search" xmlns="http://www.w3.org/2000/svg"><circle cx="9.9" cy="9.9" r="9" stroke="#F6F6F6" stroke-width="1.5"/><path d="M16.5 16.5l6.364 6.364" stroke="#F6F6F6" stroke-width="1.5" stroke-linecap="round" stroke-linejoin="round"/></svg></svg>